<svg id="Слой_1" data-name="Слой 1" xmlns="http://www.w3.org/2000/svg" viewBox="0 0 42 42"><defs><style>.cls-1{fill:#66ccc4;}.cls-2{fill:#fff;}</style></defs><title>edu_camp_fea_2</title><path class="cls-1" d="M26.83975,38.96776V34.14H15.16024v4.82773h-4.6718v2.3359H31.51156v-2.3359Zm0,0"/><path class="cls-1" d="M1.06686,27.13232v1.168a3.50764,3.50764,0,0,0,3.50386,3.50386H37.42928a3.5077,3.5077,0,0,0,3.50386-3.50386v-1.168Zm0,0"/><path class="cls-1" d="M37.42928,1.43739H4.57072A3.50763,3.50763,0,0,0,1.06686,4.94124V24.79642H40.93314V4.94124a3.50769,3.50769,0,0,0-3.50386-3.50385Z"/><path class="cls-2" d="M5.7505,4.00207A2.1255,2.1255,0,0,0,3.625,6.12757V21.69063a.47172.47172,0,0,0,.47172.47172H37.90328a.47172.47172,0,0,0,.47172-.47172V6.12757a2.1255,2.1255,0,0,0-2.1255-2.1255Z"/></svg>